<svg width="20" height="22" viewBox="0 0 20 22" fill="none" xmlns="http://www.w3.org/2000/svg">
<path d="M10 4.96464C8.50426 4.96464 7.2917 6.1772 7.2917 7.67297C7.2917 9.16874 8.50426 10.3813 10 10.3813C11.4958 10.3813 12.7084 9.16874 12.7084 7.67297C12.7084 6.1772 11.4958 4.96464 10 4.96464Z" fill="white"/>
<path fill-rule="evenodd" clip-rule="evenodd" d="M5.64131 0.240861C8.51475 -0.0802871 11.4853 -0.0802871 14.3588 0.240861C15.9408 0.417673 17.2168 1.66415 17.4024 3.2517C17.746 6.1892 17.746 9.15674 17.4024 12.0942C17.2168 13.6818 15.9408 14.9283 14.3588 15.1051C11.4853 15.4262 8.51475 15.4262 5.64131 15.1051C4.05931 14.9283 2.78332 13.6818 2.59764 12.0942C2.25407 9.15674 2.25407 6.1892 2.59764 3.2517C2.78332 1.66415 4.05931 0.417673 5.64131 0.240861ZM14.1667 2.67297C13.7065 2.67297 13.3334 3.04607 13.3334 3.5063C13.3334 3.96654 13.7065 4.33964 14.1667 4.33964C14.6269 4.33964 15 3.96654 15 3.5063C15 3.04607 14.6269 2.67297 14.1667 2.67297ZM6.0417 7.67297C6.0417 5.48684 7.8139 3.71464 10 3.71464C12.1862 3.71464 13.9584 5.48684 13.9584 7.67297C13.9584 9.8591 12.1862 11.6313 10 11.6313C7.8139 11.6313 6.0417 9.8591 6.0417 7.67297Z" fill="white"/>
</svg>
