<svg width="20" height="22" viewBox="0 0 20 22" fill="none" xmlns="http://www.w3.org/2000/svg">
<path d="M11.8333 0C10.8111 0 9.83078 0.406063 9.10798 1.12886C8.38519 1.85166 7.97913 2.83198 7.97913 3.85417V6H5.91663C5.81307 6 5.72913 6.08395 5.72913 6.1875V9.02083C5.72913 9.12439 5.81307 9.20833 5.91663 9.20833H7.97913V15.0208C7.97913 15.1244 8.06307 15.2083 8.16663 15.2083H11C11.1035 15.2083 11.1875 15.1244 11.1875 15.0208V9.20833H13.2682C13.3543 9.20833 13.4293 9.14978 13.4501 9.06631L14.1585 6.23298C14.188 6.11464 14.0985 6 13.9766 6H11.1875V3.85417C11.1875 3.68288 11.2555 3.51861 11.3766 3.39749C11.4977 3.27638 11.662 3.20833 11.8333 3.20833H14C14.1035 3.20833 14.1875 3.12439 14.1875 3.02083V0.1875C14.1875 0.0839467 14.1035 0 14 0H11.8333Z" fill="white"/>
</svg>
