<svg width="1440" height="219" viewBox="0 0 1440 219" fill="none" xmlns="http://www.w3.org/2000/svg">
<rect width="1440" height="219" fill="#1E1E1E"/>
<path d="M279.508 103.688C279.639 101.142 280.552 99.0658 281.978 97.4409V95.2773H280.082C276.247 95.2773 273.004 96.7458 271.117 100.065H271.004V95.6422H261.169V122.605H271.004V111.717C271.004 107.095 272.36 103.575 277.812 103.575C278.412 103.584 278.969 103.61 279.508 103.688ZM353.988 103.584C354.805 101.203 356.127 99.0745 357.849 97.3714V95.2686H355.953C352.118 95.2686 348.875 96.7371 346.979 100.056H346.875V95.6422H337.031V122.605H346.875V111.717C346.875 107.095 348.231 103.575 353.692 103.575L353.988 103.584ZM299.482 102.576C297.961 101.785 295.856 101.264 294.169 101.264C293.039 101.264 291.091 101.733 291.091 103.106C291.091 104.948 294.169 105.209 295.526 105.478C300.109 106.373 303.578 108.476 303.578 113.464C303.578 120.554 296.926 123.508 290.491 123.508C286.543 123.508 282.656 122.405 279.299 120.406L282.865 113.724C284.865 115.097 288.213 116.461 290.647 116.461C291.891 116.461 293.726 115.888 293.726 114.411C293.726 112.308 290.647 112.195 287.56 111.413C284.482 110.622 281.404 109.154 281.404 104.323C281.404 97.7016 287.56 94.756 293.63 94.756C296.769 94.756 299.9 95.2252 302.761 96.4851L299.482 102.576ZM387.354 122.605H377.519V119.607H377.414C375.684 122.283 372.267 123.491 369.032 123.491C360.805 123.491 355.031 116.818 355.031 109.084C355.031 101.368 360.71 94.7386 368.927 94.7386C372.119 94.7386 375.475 95.8942 377.528 98.2577V95.6336H387.363L387.354 122.605ZM365.188 109.145C365.188 112.56 367.519 115.184 371.51 115.184C375.51 115.184 377.832 112.56 377.832 109.145C377.832 105.835 375.51 103.045 371.51 103.045C367.519 103.054 365.188 105.835 365.188 109.145ZM335.483 110.727H314.77C314.77 114.611 316.883 116.713 320.935 116.713C323.039 116.713 324.553 116.036 325.639 114.246H335.101C333.535 120.606 327.309 123.5 320.987 123.5C311.804 123.5 304.935 118.451 304.935 109.154C304.935 100.169 311.257 94.756 320.283 94.756C329.909 94.756 335.483 100.543 335.483 109.736V110.727ZM326.344 105.209C325.857 102.637 323.422 100.951 320.779 100.951C317.909 100.951 315.544 102.42 314.935 105.209H326.344ZM229.872 108.676C229.864 108.441 229.846 108.215 229.829 107.99V107.981C229.611 105.478 228.777 103.141 227.377 101.021C226.759 100.091 226.037 99.2309 225.229 98.4488C224.055 97.3193 222.707 96.3895 221.176 95.6596C218.881 94.5648 216.342 94.0087 213.628 94.0087C213.368 94.0087 213.089 94.0087 212.811 94.0261C210.907 94.113 209.063 94.4692 207.333 95.1122C205.585 95.7465 204.072 96.572 202.828 97.5712C202.576 97.7711 202.298 98.0144 202.002 98.2924L201.785 98.501L201.498 98.8138L201.359 98.9441L201.289 99.0136L200.941 99.3786C200.689 99.6566 200.446 99.9434 200.211 100.239L200.202 100.23C199.724 100.812 199.289 101.403 198.967 101.942C198.75 102.289 198.533 102.637 198.333 102.993L195.498 108.728L195.35 109.015L195.037 109.649C194.411 110.909 193.75 112.16 193.002 113.194C191.341 115.01 189.463 115.905 187.054 115.905C186.889 115.905 186.715 115.897 186.532 115.888C185.08 115.827 183.828 115.488 182.724 114.837C182.61 114.767 182.489 114.698 182.376 114.619C181.471 114.02 180.784 113.246 180.263 112.291C179.68 111.204 179.419 110.084 179.454 108.911C179.454 108.876 179.454 108.85 179.454 108.824C179.532 106.947 180.245 105.487 181.689 104.227C182.037 103.932 182.402 103.671 182.793 103.436C182.845 103.402 182.897 103.376 182.958 103.35C184.028 102.767 185.254 102.472 186.654 102.472L187.089 102.481C189.315 102.567 191.028 103.263 192.393 104.609L196.68 96.9196C195.654 96.2331 194.498 95.6422 193.219 95.1643C193.167 95.147 193.124 95.1296 193.072 95.1122C192.915 95.0601 192.767 94.9993 192.611 94.9471C191.254 94.4953 189.828 94.2172 188.367 94.0869C188.332 94.0782 188.289 94.0782 188.254 94.0695C188.028 94.0521 187.802 94.0261 187.576 94.0174C187.332 94.0087 187.089 94 186.845 94H186.706C184.01 94.0087 181.506 94.5648 179.21 95.6509C176.645 96.8848 174.567 98.6834 173.019 101.003C171.48 103.323 170.645 105.895 170.523 108.659C170.515 108.893 170.506 109.128 170.506 109.362C170.506 113.229 171.915 116.627 174.715 119.477C177.636 122.466 181.445 124.082 186.011 124.273C186.306 124.282 186.593 124.29 186.88 124.29C189.463 124.29 191.854 123.83 194.002 122.909C194.541 122.683 195.054 122.413 195.593 122.109C195.88 121.944 196.159 121.762 196.428 121.579L196.628 121.449L196.967 121.214C197.367 120.919 197.759 120.606 198.124 120.276L198.254 120.154C198.472 119.946 198.689 119.737 198.889 119.52L199.654 118.651L199.95 118.286L200.089 118.086L200.228 117.886C201.367 115.966 205.089 108.989 205.089 108.989V108.971L205.307 108.546L205.489 108.215C206.037 107.216 206.437 106.512 206.959 105.765L206.976 105.739C208.202 103.966 210.298 102.707 212.776 102.489C216.933 102.133 220.576 104.861 220.907 108.58C221.237 112.308 218.142 115.61 213.985 115.975C213.115 116.053 212.281 115.992 211.489 115.818L211.472 115.827C208.42 115.193 206.481 112.968 205.524 111.978L201.524 119.329C201.524 119.329 202.767 120.58 203.62 121.206C204.472 121.831 205.576 122.44 206.454 122.822C208.585 123.734 210.907 124.282 213.472 124.282C213.768 124.282 213.707 124.282 214.02 124.273C218.585 124.082 222.655 122.335 225.585 119.338C228.368 116.496 229.872 113.246 229.89 109.406V109.293C229.89 109.11 229.881 108.893 229.872 108.676ZM245.177 123.517C243.099 123.517 241.22 123.274 239.533 122.796C237.846 122.318 236.403 121.553 235.212 120.511C234.012 119.468 233.09 118.138 232.438 116.531C231.785 114.923 231.464 112.977 231.464 110.718V95.6336H240.942V110.588C240.942 112.282 241.351 113.507 242.16 114.28C242.968 115.045 244.003 115.436 245.247 115.436C246.525 115.436 247.56 115.08 248.36 114.359C249.151 113.646 249.56 112.456 249.56 110.787V95.6336H259.047V110.509C259.047 112.855 258.716 114.845 258.047 116.487C257.386 118.13 256.447 119.468 255.238 120.511C254.029 121.553 252.568 122.309 250.847 122.796C249.134 123.274 247.247 123.517 245.177 123.517Z" fill="white"/>
<path fill-rule="evenodd" clip-rule="evenodd" d="M661.776 130.418H667.752L678.091 104.264H672.176L667.902 117.29L663.4 104.264H656.798L664.659 123.156L661.776 130.418ZM632.115 110.473V123.88H626.086V104.265H630.323L631.582 105.978C633.223 104.604 634.977 103.807 637 103.807C639.709 103.807 641.769 104.608 643.029 106.589C644.86 104.912 646.807 103.807 649.288 103.807C653.942 103.807 656.652 106.207 656.652 112.72V123.88H650.623V113.406C650.623 110.397 649.401 109.521 647.455 109.521C646.31 109.521 645.358 109.825 644.288 110.511C644.365 111.197 644.403 111.92 644.403 112.717V123.876H638.374V113.406C638.374 110.397 637.152 109.521 635.168 109.521C634.061 109.521 633.146 109.787 632.115 110.473ZM611.088 112.149H618.834C618.414 109.597 617.041 108.378 614.98 108.378C613.224 108.378 611.546 109.407 611.088 112.149ZM615.4 124.26C609.6 124.26 604.944 121.404 604.944 113.862C604.944 106.815 609.447 103.769 614.637 103.769C620.895 103.769 623.68 108.148 623.68 115.042H611.049C611.469 118.432 613.569 119.423 616.355 119.423C619.048 119.423 621.156 118.759 622.787 117.664L621.968 122.437C620.412 123.638 618.543 124.26 615.4 124.26L615.4 124.26ZM592.951 119.195C594.327 119.195 595.355 118.966 596.423 118.166V109.635C595.469 109.063 594.516 108.797 593.142 108.797C590.204 108.797 588.525 110.777 588.525 114.09C588.525 117.328 590.242 119.196 592.951 119.196L592.951 119.195ZM597.605 122.432C596.041 123.613 594.249 124.336 591.691 124.336C586.311 124.336 582.419 121.023 582.419 114.205C582.419 107.425 586.884 103.769 592.607 103.769C593.943 103.769 595.241 103.96 596.423 104.42V96.0908H602.452V123.879H598.636L597.605 122.432ZM556.874 112.262V97.7251H563.131V112.148C563.131 117.328 565.459 118.394 568.664 118.394C572.137 118.394 573.93 116.871 573.93 112.148V97.7251H580.226V112.262C580.226 120.832 576.487 124.412 568.36 124.412C560.803 124.412 556.873 121.327 556.873 112.262L556.874 112.262Z" fill="white"/>
<path fill-rule="evenodd" clip-rule="evenodd" d="M540.625 113.624C540.377 113.423 540.083 113.286 539.768 113.225C537.917 115.051 535.657 116.974 533.651 118.266C532.726 118.875 531.562 119.179 530.791 119.179C529.016 119.179 528.245 117.505 528.014 114.841C527.705 111.268 527.497 106.988 527.497 100.372C527.497 93.5877 525.94 88.9753 521.794 88.6138C521.619 88.5983 521.442 88.5878 521.257 88.5878C518.711 88.5878 517.477 89.8801 515.858 93.1496C514.469 95.9625 512.314 100.068 508.3 107.823C504.829 114.515 500.973 120.446 497.655 124.552C496.732 125.689 496.002 126.471 495.316 126.916C494.857 127.215 494.417 127.365 493.954 127.365C492.645 127.365 491.689 126.271 491.37 123.727C491.294 123.122 491.254 122.435 491.254 121.662C491.254 116.416 493.264 107.9 496.73 95.3542C499.276 86.2339 498.196 80 492.642 80H492.58L492.576 80.0007C491.318 80.0152 490.276 80.4659 489.271 81.2478C488.282 82.0177 487.293 83.6819 486.369 85.9191C485.328 88.4385 478.995 101.005 468.916 107.478C468.797 109.94 470.206 112.4 473.06 112.666C475.654 112.91 477.503 111.827 479.878 110.248C479.559 111.653 479.245 113.059 478.936 114.466L478.606 115.962C478.293 117.372 478.053 118.797 477.888 120.232C476.463 132.799 482.354 139 489.25 139C490.402 139 491.544 138.864 492.678 138.579C500.274 136.673 507.589 128.052 516.244 108.207C516.113 110.366 516.099 112.382 516.194 114.253C516.764 125.627 521.312 129.04 527.74 129.04C532.6 129.04 537.15 126.531 539.463 123.413C541.16 121.208 541.855 118.775 541.855 116.871C541.855 115.395 541.381 114.217 540.629 113.62" fill="white"/>
<path d="M785.095 100.28C785.095 99.2794 784.772 98.5045 784.03 98.0524C783.578 97.7941 782.674 97.6973 781.899 97.6973H776.377V108.837H782.383C783.771 108.837 784.869 109.16 784.966 110.387H785.095V100.28Z" fill="#1E1E1E"/>
<path d="M785.095 100.28C785.095 99.2794 784.772 98.5045 784.03 98.0524C783.578 97.7941 782.674 97.6973 781.899 97.6973H776.377V108.837H782.383C783.771 108.837 784.869 109.16 784.966 110.387H785.095V100.28Z" stroke="white" stroke-width="1.057" stroke-miterlimit="3.8637"/>
<path d="M785.095 100.28C785.095 99.2792 785.418 98.5042 786.16 98.0522C786.612 97.7939 787.71 97.697 788.453 97.697H794.006V108.837H787.968C786.58 108.837 785.288 109.16 785.224 110.387H785.095V100.28Z" fill="#1E1E1E"/>
<path d="M785.095 100.28C785.095 99.2792 785.418 98.5042 786.16 98.0522C786.612 97.7939 787.71 97.697 788.453 97.697H794.006V108.837H787.968C786.58 108.837 785.288 109.16 785.224 110.387H785.095V100.28Z" stroke="white" stroke-width="1.057" stroke-miterlimit="3.8637"/>
<path d="M795.169 98.5369V110.322H786.644L786.547 110.581C786.386 110.936 786.128 111.291 785.191 111.291C784.255 111.291 783.997 110.936 783.835 110.581L783.738 110.322H775.214V98.5369H774.439V98.8921L773.696 98.666C773.599 98.3754 773.341 98.1494 773.018 98.1494C772.631 98.1494 772.308 98.4723 772.308 98.8598C772.308 99.2472 772.631 99.5701 773.018 99.5701C773.18 99.5701 773.341 99.5056 773.47 99.4087L774.439 99.6993V100.636L773.696 100.507C773.599 100.248 773.341 100.087 773.051 100.087C772.663 100.087 772.34 100.41 772.34 100.797C772.34 101.185 772.663 101.507 773.051 101.507C773.244 101.507 773.438 101.411 773.567 101.281L774.439 101.443V102.412L773.696 102.379C773.567 102.186 773.341 102.024 773.083 102.024C772.695 102.024 772.373 102.347 772.373 102.734C772.373 103.122 772.695 103.445 773.083 103.445C773.309 103.445 773.535 103.316 773.664 103.154L774.439 103.187V104.22L773.664 104.252C773.535 104.058 773.341 103.961 773.083 103.961C772.695 103.961 772.373 104.284 772.373 104.672C772.373 105.059 772.695 105.382 773.083 105.382C773.341 105.382 773.567 105.253 773.664 105.059L774.407 105.027V105.996L773.567 106.125C773.438 105.996 773.244 105.899 773.051 105.899C772.663 105.899 772.34 106.222 772.34 106.609C772.34 106.997 772.663 107.319 773.051 107.319C773.341 107.319 773.599 107.158 773.696 106.9L774.407 106.771V107.707L773.47 107.998C773.341 107.901 773.18 107.836 773.018 107.836C772.631 107.836 772.308 108.159 772.308 108.546C772.308 108.934 772.631 109.257 773.018 109.257C773.341 109.257 773.599 109.031 773.696 108.74L774.407 108.514V109.418L773.373 109.87C773.277 109.806 773.147 109.741 772.986 109.741C772.599 109.741 772.276 110.064 772.276 110.452C772.276 110.839 772.599 111.162 772.986 111.162C773.341 111.162 773.632 110.904 773.664 110.581L774.374 110.258V111.097H783.286C783.641 111.711 784.255 112.034 785.191 112.034C786.128 112.034 786.741 111.711 787.096 111.097H795.911V98.5369H795.169Z" fill="white"/>
<path d="M779.38 94.6299C777.604 94.6299 776.151 94.9205 776.151 95.2434C776.151 95.5986 777.604 95.8569 779.38 95.8569C781.156 95.8569 782.609 95.5663 782.609 95.2434C782.609 94.8882 781.188 94.6299 779.38 94.6299Z" fill="white"/>
<path d="M783.835 90.755L781.963 92.0789L781.93 92.2081L782.382 92.4018C782.479 92.4341 782.479 92.5309 782.415 92.5632L781.252 93.5642H781.155L780.316 92.3372C780.251 92.2726 780.284 92.1758 780.381 92.1758L780.929 92.0789V91.9497L779.476 89.9155H779.25L777.797 91.9497V92.0789L778.346 92.1758C778.443 92.208 778.476 92.2726 778.411 92.3372L777.571 93.5642H777.475L776.377 92.5632C776.344 92.5309 776.344 92.4664 776.409 92.4018L776.861 92.2081L776.829 92.0789L774.891 90.755L774.73 90.8196L775.86 94.3068C776.441 94.0485 777.765 93.8548 779.315 93.8548C780.865 93.8548 782.189 94.0485 782.77 94.3068L783.9 90.8196L783.835 90.755Z" fill="white"/>
<path d="M785.192 117.942C783.416 117.942 781.963 118.233 781.963 118.556C781.963 118.911 783.416 119.169 785.192 119.169C786.968 119.169 788.421 118.879 788.421 118.556C788.389 118.233 786.968 117.942 785.192 117.942Z" fill="white"/>
<path d="M789.615 114.068L787.742 115.392V115.521L788.194 115.715C788.291 115.747 788.291 115.844 788.227 115.876L787.064 116.877H786.968L786.128 115.65C786.063 115.585 786.096 115.489 786.193 115.489L786.741 115.392V115.262L785.288 113.228H785.062L783.609 115.262V115.392L784.158 115.489C784.255 115.521 784.288 115.585 784.223 115.65L783.383 116.877H783.287L782.189 115.876C782.156 115.844 782.156 115.747 782.221 115.715L782.673 115.521V115.392L780.736 114.068L780.574 114.132L781.704 117.62C782.286 117.361 783.609 117.168 785.159 117.168C786.709 117.168 788.033 117.361 788.614 117.62L789.744 114.132L789.615 114.068Z" fill="white"/>
<path d="M790.939 94.6299C789.163 94.6299 787.71 94.9205 787.71 95.2434C787.71 95.5986 789.163 95.8569 790.939 95.8569C792.715 95.8569 794.168 95.5663 794.168 95.2434C794.168 94.8882 792.715 94.6299 790.939 94.6299Z" fill="white"/>
<path d="M795.395 90.755L793.522 92.0789L793.49 92.2081L793.942 92.4018C794.039 92.4341 794.039 92.5309 793.974 92.5632L792.812 93.5642H792.715L791.875 92.3372C791.811 92.2726 791.843 92.1758 791.94 92.1758L792.489 92.0789V91.9497L791.036 89.9155H790.81L789.357 91.9497V92.0789L789.906 92.1758C790.003 92.208 790.035 92.2726 789.97 92.3372L789.131 93.5642H789.034L787.936 92.5632C787.904 92.5309 787.904 92.4664 787.968 92.4018L788.421 92.2081L788.388 92.0789L786.451 90.755L786.289 90.8196L787.42 94.3068C788.001 94.0485 789.325 93.8548 790.874 93.8548C792.424 93.8548 793.748 94.0485 794.329 94.3068L795.46 90.8196L795.395 90.755Z" fill="white"/>
<path d="M777.927 99.5054C778.217 99.5054 778.475 99.57 778.637 99.7314C778.766 99.8283 778.863 100.022 778.863 100.248C778.863 100.862 778.411 101.12 777.83 101.12H777.184V101.023C777.378 101.023 777.378 100.991 777.378 100.732V99.8928C777.378 99.6345 777.345 99.6022 777.184 99.6022V99.5054H777.927ZM777.83 100.7C777.83 100.926 777.894 100.958 777.991 100.958C778.217 100.958 778.411 100.732 778.411 100.28C778.411 99.7637 778.153 99.6022 777.927 99.6022C777.862 99.6022 777.83 99.6022 777.83 99.6345C777.83 99.6345 777.83 99.6991 777.83 99.7637V100.7Z" fill="white"/>
<path d="M780.736 100.28C780.736 100.797 780.381 101.12 779.896 101.12C779.412 101.12 779.089 100.765 779.089 100.313C779.089 99.9252 779.347 99.4409 779.929 99.4409C780.381 99.4409 780.736 99.7961 780.736 100.28ZM779.541 100.216C779.541 100.668 779.703 100.991 779.961 100.991C780.187 100.991 780.284 100.797 780.284 100.345C780.284 99.8607 780.122 99.5701 779.896 99.5701C779.703 99.5701 779.541 99.7961 779.541 100.216Z" fill="white"/>
<path d="M782.899 99.5054V99.6022C782.705 99.6345 782.705 99.6345 782.705 99.8928L782.737 100.7C782.737 100.958 782.737 100.991 782.931 100.991V101.088H782.156V100.991C782.35 100.958 782.35 100.958 782.35 100.7V99.8283L781.865 101.055H781.736L781.284 99.9251L781.252 100.474C781.252 100.7 781.252 100.797 781.252 100.894C781.252 100.991 781.317 101.023 781.478 101.023V101.12H780.865V101.023C780.994 101.023 781.026 100.991 781.058 100.894C781.058 100.829 781.091 100.7 781.091 100.474L781.123 99.9897C781.155 99.6668 781.123 99.6668 780.929 99.6345V99.5377H781.51L781.93 100.506L782.318 99.5377H782.899V99.5054Z" fill="white"/>
<path d="M783.706 100.7C783.706 100.958 783.739 100.991 783.9 100.991V101.088H783.093V100.991C783.254 100.991 783.287 100.958 783.287 100.7V99.8928C783.287 99.6345 783.254 99.6022 783.093 99.6022V99.5054H783.9V99.6022C783.739 99.6022 783.706 99.6345 783.706 99.8928V100.7Z" fill="white"/>
<path d="M779.735 104.058H779.509L778.605 102.896V103.348C778.605 103.606 778.605 103.735 778.637 103.832C778.637 103.929 778.701 103.961 778.863 103.961V104.058H778.249V103.961C778.346 103.961 778.411 103.929 778.443 103.832C778.443 103.767 778.475 103.606 778.475 103.348V102.896C778.475 102.702 778.475 102.67 778.411 102.605C778.379 102.54 778.314 102.54 778.217 102.54V102.444H778.766L779.573 103.477V103.154C779.573 102.896 779.573 102.766 779.541 102.67C779.541 102.573 779.476 102.54 779.315 102.54V102.444H779.928V102.54C779.799 102.54 779.735 102.573 779.735 102.67C779.735 102.734 779.702 102.896 779.702 103.154V104.058H779.735Z" fill="white"/>
<path d="M780.736 104.058C780.575 103.606 780.349 103.025 780.252 102.766C780.155 102.573 780.123 102.54 779.993 102.54V102.444H780.801V102.54H780.704C780.607 102.54 780.607 102.573 780.639 102.67C780.671 102.799 780.865 103.283 780.962 103.541C781.027 103.348 781.188 102.863 781.22 102.734C781.285 102.573 781.253 102.573 781.156 102.54H781.091V102.444H781.672V102.54C781.543 102.573 781.511 102.573 781.414 102.799C781.414 102.831 781.091 103.574 780.93 104.058H780.736Z" fill="white"/>
<path d="M781.834 103.542C781.898 103.671 782.027 103.961 782.286 103.961C782.415 103.961 782.512 103.864 782.512 103.703C782.512 103.574 782.415 103.477 782.253 103.412L782.221 103.38C782.027 103.283 781.801 103.154 781.801 102.896C781.801 102.605 781.995 102.379 782.382 102.379C782.447 102.379 782.544 102.379 782.608 102.411C782.673 102.411 782.705 102.444 782.738 102.444C782.738 102.541 782.77 102.67 782.802 102.831L782.705 102.863C782.641 102.702 782.576 102.541 782.382 102.541C782.253 102.541 782.156 102.637 782.156 102.767C782.156 102.896 782.253 102.96 782.415 103.025L782.479 103.057C782.705 103.154 782.899 103.283 782.899 103.574C782.899 103.864 782.641 104.09 782.286 104.09C782.189 104.09 782.092 104.058 782.027 104.058C781.963 104.026 781.898 104.026 781.866 103.994C781.834 103.864 781.801 103.735 781.769 103.574L781.834 103.542Z" fill="white"/>
<path d="M778.637 106.577C778.637 106.835 778.669 106.868 778.831 106.868V106.964H778.024V106.868C778.185 106.868 778.217 106.835 778.217 106.577V105.77C778.217 105.511 778.185 105.479 778.024 105.479V105.382H778.831V105.479C778.669 105.479 778.637 105.511 778.637 105.77V106.577Z" fill="white"/>
<path d="M779.606 106.609C779.606 106.738 779.606 106.803 779.671 106.835C779.703 106.868 779.767 106.868 779.832 106.868C779.897 106.868 780.026 106.868 780.058 106.803C780.09 106.771 780.155 106.706 780.187 106.545L780.284 106.577C780.284 106.674 780.219 106.932 780.187 106.997H778.96V106.9C779.154 106.9 779.154 106.868 779.154 106.609V105.802C779.154 105.544 779.122 105.511 778.96 105.511V105.382H779.767V105.479C779.606 105.479 779.574 105.511 779.574 105.77V106.609H779.606Z" fill="white"/>
<path d="M780.994 106.609C780.994 106.738 780.994 106.803 781.058 106.835C781.09 106.868 781.155 106.868 781.22 106.868C781.284 106.868 781.413 106.868 781.446 106.803C781.478 106.771 781.543 106.706 781.575 106.545L781.672 106.577C781.672 106.674 781.607 106.932 781.575 106.997H780.38V106.9C780.574 106.9 780.574 106.868 780.574 106.609V105.802C780.574 105.544 780.542 105.511 780.38 105.511V105.382H781.187V105.479C781.026 105.479 780.994 105.511 780.994 105.77V106.609Z" fill="white"/>
<path d="M782.156 106.997C781.995 106.545 781.769 105.964 781.672 105.705C781.575 105.511 781.542 105.479 781.413 105.479V105.382H782.221V105.479H782.124C782.027 105.479 782.027 105.511 782.059 105.608C782.091 105.738 782.285 106.222 782.382 106.48C782.447 106.286 782.608 105.802 782.64 105.673C782.705 105.511 782.673 105.511 782.576 105.479H782.511V105.382H783.092V105.479C782.963 105.511 782.931 105.511 782.834 105.738C782.834 105.77 782.511 106.512 782.35 106.997H782.156Z" fill="white"/>
<path d="M788.485 99.5054V99.6022C788.291 99.6345 788.291 99.6345 788.291 99.8928L788.323 100.7C788.323 100.958 788.323 100.991 788.517 100.991V101.088H787.742V100.991C787.936 100.958 787.936 100.958 787.936 100.7V99.8283L787.451 101.055H787.322L786.87 99.9251L786.838 100.474C786.838 100.7 786.838 100.797 786.838 100.894C786.838 100.991 786.902 101.023 787.064 101.023V101.12H786.45V101.023C786.58 101.023 786.612 100.991 786.644 100.894C786.644 100.829 786.676 100.7 786.676 100.474L786.709 99.9897C786.741 99.6668 786.709 99.6668 786.515 99.6345V99.5377H787.096L787.516 100.506L787.903 99.5377H788.485V99.5054Z" fill="white"/>
<path d="M789.292 100.7C789.292 100.958 789.325 100.991 789.486 100.991V101.088H788.679V100.991C788.84 100.991 788.873 100.958 788.873 100.7V99.8928C788.873 99.6345 788.84 99.6022 788.679 99.6022V99.5054H789.486V99.6022C789.325 99.6022 789.292 99.6345 789.292 99.8928V100.7Z" fill="white"/>
<path d="M791.101 101.12H790.875L789.971 99.9574V100.409C789.971 100.668 789.971 100.797 790.003 100.894C790.003 100.991 790.068 101.023 790.229 101.023V101.12H789.616V101.023C789.712 101.023 789.777 100.991 789.809 100.894C789.809 100.829 789.842 100.7 789.842 100.409V99.9574C789.842 99.7637 789.842 99.7314 789.777 99.6668C789.745 99.6022 789.68 99.6022 789.583 99.6022V99.5054H790.132L790.939 100.539V100.216C790.939 99.9574 790.939 99.8283 790.907 99.7314C790.907 99.6345 790.843 99.6022 790.649 99.6022V99.5054H791.262V99.6022C791.133 99.6022 791.069 99.6345 791.069 99.7314C791.069 99.796 791.036 99.9574 791.036 100.216V101.12H791.101Z" fill="white"/>
<path d="M792.134 100.991H792.198C792.295 100.991 792.295 100.959 792.263 100.862L792.166 100.603H791.746L791.682 100.829C791.649 100.926 791.649 100.958 791.746 100.958H791.811V101.055H791.23V100.958C791.359 100.926 791.391 100.926 791.488 100.732L791.972 99.4732L792.134 99.4409L792.295 99.893C792.392 100.184 792.521 100.474 792.586 100.732C792.65 100.959 792.715 100.958 792.844 100.991V101.088H792.069V100.991H792.134ZM791.811 100.474H792.134L791.972 99.9898L791.811 100.474Z" fill="white"/>
<path d="M788.453 103.638C788.453 103.897 788.485 103.929 788.679 103.929V104.026H787.807V103.929C788.001 103.929 788.033 103.897 788.033 103.638V102.573H788.001C787.84 102.573 787.775 102.605 787.743 102.637C787.711 102.67 787.678 102.734 787.646 102.863H787.549C787.549 102.67 787.581 102.476 787.581 102.347H787.646C787.678 102.411 787.711 102.411 787.775 102.411H788.744C788.808 102.411 788.808 102.411 788.873 102.347H788.938C788.938 102.444 788.938 102.67 788.97 102.831H788.873C788.841 102.67 788.808 102.605 788.776 102.573C788.744 102.54 788.647 102.508 788.55 102.508H788.453V103.638Z" fill="white"/>
<path d="M789.744 103.638C789.744 103.897 789.777 103.929 789.938 103.929V104.026H789.131V103.929C789.292 103.929 789.325 103.897 789.325 103.638V102.831C789.325 102.573 789.292 102.54 789.131 102.54V102.444H789.938V102.54C789.777 102.54 789.744 102.573 789.744 102.831V103.638Z" fill="white"/>
<path d="M791.811 103.219C791.811 103.735 791.456 104.058 790.971 104.058C790.487 104.058 790.164 103.703 790.164 103.251C790.164 102.863 790.422 102.379 791.004 102.379C791.456 102.411 791.811 102.734 791.811 103.219ZM790.616 103.186C790.616 103.638 790.778 103.961 791.036 103.961C791.262 103.961 791.359 103.768 791.359 103.316C791.359 102.831 791.165 102.541 790.971 102.541C790.745 102.541 790.616 102.734 790.616 103.186Z" fill="white"/>
<path d="M789.195 105.382V105.479C789.002 105.511 789.002 105.511 789.002 105.77L789.034 106.577C789.034 106.835 789.034 106.867 789.228 106.867V106.964H788.453V106.867C788.647 106.835 788.647 106.835 788.647 106.577V105.705L788.162 106.932H788.033L787.581 105.802L787.549 106.351C787.549 106.577 787.549 106.674 787.549 106.771C787.549 106.867 787.613 106.9 787.775 106.9V106.997H787.161V106.9C787.29 106.9 787.323 106.867 787.355 106.771C787.355 106.706 787.387 106.577 787.387 106.351L787.42 105.866C787.452 105.544 787.42 105.544 787.226 105.511V105.382H787.807L788.227 106.351L788.614 105.382H789.195Z" fill="white"/>
<path d="M789.583 105.77C789.583 105.511 789.551 105.479 789.389 105.479V105.382H790.552C790.552 105.414 790.552 105.608 790.584 105.802H790.487C790.455 105.673 790.422 105.608 790.39 105.576C790.358 105.544 790.261 105.511 790.132 105.511H790.1C790.003 105.511 790.003 105.511 790.003 105.608V106.092H790.132C790.358 106.092 790.358 106.092 790.39 105.899H790.487V106.48H790.39C790.358 106.254 790.358 106.254 790.132 106.254H790.003V106.641C790.003 106.771 790.003 106.835 790.067 106.867C790.1 106.9 790.164 106.9 790.229 106.9C790.326 106.9 790.422 106.9 790.487 106.835C790.519 106.803 790.584 106.706 790.616 106.577L790.713 106.609C790.713 106.738 790.648 106.997 790.616 107.061H789.357V106.964C789.551 106.932 789.551 106.932 789.551 106.674V105.77H789.583Z" fill="white"/>
<path d="M791.553 106.899H791.617C791.714 106.899 791.714 106.867 791.682 106.77L791.585 106.512H791.197L791.133 106.738C791.101 106.835 791.101 106.867 791.197 106.867H791.262V106.964H790.713V106.867C790.842 106.835 790.875 106.835 790.971 106.641L791.456 105.382L791.617 105.35L791.779 105.802C791.875 106.092 792.005 106.383 792.069 106.641C792.134 106.867 792.198 106.867 792.328 106.867V106.964H791.553V106.899ZM791.262 106.351H791.585L791.423 105.866L791.262 106.351Z" fill="white"/>
<path d="M782.964 126.725C782.964 127.08 782.673 127.371 782.318 127.371C781.963 127.371 781.672 127.08 781.672 126.725C781.672 126.37 781.963 126.079 782.318 126.079C782.673 126.079 782.964 126.37 782.964 126.725Z" fill="white"/>
<path d="M789.486 127.791C789.486 128.146 789.195 128.436 788.84 128.436C788.485 128.436 788.194 128.146 788.194 127.791C788.194 127.435 788.485 127.145 788.84 127.145C789.195 127.145 789.486 127.435 789.486 127.791Z" fill="white"/>
<path d="M785.805 81.3914C785.805 81.7466 785.515 82.0372 785.16 82.0372C784.805 82.0372 784.514 81.7466 784.514 81.3914C784.514 81.0362 784.805 80.7456 785.16 80.7456C785.515 80.7456 785.805 81.0362 785.805 81.3914Z" fill="white"/>
<path d="M801.077 87.3968C801.077 87.752 800.755 88.0103 800.399 88.0103C800.044 88.0103 799.754 87.6874 799.786 87.3322C799.786 86.9771 800.109 86.7188 800.464 86.7188C800.819 86.751 801.077 87.0416 801.077 87.3968Z" fill="white"/>
<path d="M768.886 114.972C769.144 115.327 769.273 115.714 769.241 116.102C769.241 116.554 769.079 116.909 768.272 117.458L765.947 119.105L765.528 118.491C765.528 118.491 767.917 116.812 767.949 116.78C768.369 116.489 768.53 116.296 768.53 115.973C768.53 115.779 768.466 115.553 768.304 115.327C768.078 115.004 767.788 114.875 767.497 114.875C767.271 114.875 767.013 115.036 766.561 115.359L764.397 116.845L763.978 116.231L766.044 114.81C766.625 114.391 767.077 114.132 767.497 114.132C768.143 114.165 768.595 114.552 768.886 114.972Z" fill="white"/>
<path d="M761.459 110.451L765.883 108.902L766.109 109.58L763.59 112.647L766.787 111.388L767.013 112.034L762.654 113.713L762.428 113.035L764.946 109.967L761.685 111.097L761.459 110.451Z" fill="white"/>
<path d="M765.449 106.238L760.818 106.926L760.927 107.66L765.558 106.973L765.449 106.238Z" fill="white"/>
<path d="M760.652 101.378L760.684 100.603L765.302 102.476L765.269 103.219L760.523 104.639V103.864L764.365 102.799L760.652 101.378Z" fill="white"/>
<path d="M764.882 90.9165C764.236 90.9165 763.913 91.304 763.493 92.0466L762.945 93.0153L767.045 95.2432L767.4 94.5975L765.689 93.6611L765.786 93.4673C766.077 92.9507 766.173 92.8538 766.916 92.9184L768.24 93.0476L768.627 92.3695L767.078 92.2403C766.755 92.2081 766.529 92.1758 766.335 92.2403C766.27 92.2726 766.206 92.3049 766.109 92.3695C766.141 92.2726 766.173 92.2081 766.173 92.1112C766.173 91.982 766.141 91.8529 766.109 91.7237C766.012 91.4654 765.818 91.2394 765.528 91.0779C765.334 90.9811 765.108 90.9165 764.882 90.9165ZM764.042 92.3372C764.301 91.8529 764.527 91.6591 764.785 91.6591C764.882 91.6591 765.043 91.6914 765.172 91.756C765.334 91.8529 765.495 92.0143 765.528 92.1758C765.56 92.2404 765.56 92.3049 765.56 92.3695C765.56 92.6601 765.398 92.9184 765.237 93.209L765.14 93.3705L763.816 92.6601L764.042 92.3372Z" fill="white"/>
<path d="M770.593 83.866L770.002 84.3154L772.836 88.0427L773.427 87.5932L770.593 83.866Z" fill="white"/>
<path d="M772.567 82.4891L775.569 80.9392L775.86 81.4881L774.698 82.1016L776.538 85.6857L775.892 86.0409L774.02 82.4568L772.857 83.0703L772.567 82.4891Z" fill="white"/>
<path d="M780.09 79.5185L780.865 79.2925L780.251 82.4245L780.735 84.2004L780.025 84.3941L779.541 82.6505L777.313 80.3257L778.088 80.0997L779.67 81.7464L780.09 79.5185Z" fill="white"/>
<path d="M794.329 85.8796L796.687 81.8757L798.915 83.1996L798.592 83.7485L797.009 82.8121L796.364 83.9099L797.849 84.7817L797.526 85.3307L796.041 84.4589L794.975 86.267L794.329 85.8796Z" fill="white"/>
<path d="M806.308 96.3089L808.02 94.2747L808.278 95.0496L807.019 96.5026L808.891 96.9224L809.15 97.6973L806.567 97.0838L804.758 99.2472L804.5 98.4722L805.856 96.8578L803.822 96.4057L803.564 95.6308L806.308 96.3089Z" fill="white"/>
<path d="M804.985 100.894L809.634 100.506L809.86 103.089L809.215 103.122L809.053 101.281L807.762 101.41L807.923 103.122L807.31 103.186L807.148 101.443L805.049 101.604L804.985 100.894Z" fill="white"/>
<path d="M807.051 105.027C806.502 105.027 806.018 105.188 805.631 105.447C804.92 105.963 804.791 106.706 804.791 107.126C804.791 108.708 806.276 109.321 807.374 109.321C807.923 109.321 808.407 109.16 808.795 108.902C809.57 108.32 809.634 107.481 809.634 107.19C809.634 105.866 808.343 105.027 807.051 105.027ZM807.406 108.611C806.502 108.611 805.437 108.127 805.437 107.19C805.437 106.867 805.566 106.415 805.953 106.125C806.244 105.931 806.599 105.802 806.987 105.802C807.439 105.802 808.278 105.931 808.73 106.544C808.892 106.738 808.956 106.996 808.956 107.255C808.956 107.61 808.795 108.03 808.44 108.32C808.181 108.514 807.826 108.611 807.406 108.611Z" fill="white"/>
<path d="M804.339 89.4958C803.855 89.4958 803.371 89.6573 802.886 89.9479C801.982 90.5291 801.659 91.3363 801.659 91.9175C801.659 92.305 801.756 92.6925 801.982 93.0154C802.467 93.7903 803.242 93.984 803.726 93.984C804.21 93.984 804.727 93.8226 805.211 93.532C805.792 93.1768 806.438 92.4987 806.438 91.5624C806.438 91.1749 806.341 90.7874 806.115 90.4645C805.663 89.851 805.05 89.4958 804.339 89.4958ZM803.597 93.306C803.177 93.306 802.79 93.1445 802.531 92.7248C802.402 92.531 802.337 92.2727 802.337 92.0467C802.337 91.5301 802.66 90.9812 803.274 90.5937C803.694 90.3354 804.081 90.2062 804.436 90.2062C804.888 90.2062 805.244 90.3999 805.502 90.7874C805.631 91.0134 805.728 91.2718 805.728 91.4978C805.728 92.0144 805.405 92.531 804.824 92.8862C804.404 93.1768 803.984 93.306 803.597 93.306Z" fill="white"/>
<path d="M791.585 79.8735C790.616 79.8735 789.777 80.5193 789.421 81.6817C789.357 81.94 789.292 82.1983 789.292 82.4567C789.292 82.9087 789.357 83.2962 789.551 83.6514C789.97 84.4263 790.778 84.7169 791.359 84.7169C791.714 84.7169 792.037 84.6523 792.327 84.4909C793.102 84.0711 793.651 83.0701 793.651 82.1015C793.651 81.6817 793.554 81.2943 793.393 80.9714C793.038 80.261 792.327 79.8735 791.585 79.8735ZM791.359 84.0388C791.036 84.0388 790.519 83.8774 790.261 83.3608C790.132 83.1347 790.067 82.8118 790.067 82.5212C790.067 81.6817 790.616 80.5193 791.649 80.5193C792.231 80.5193 792.941 80.9391 792.941 82.0046C792.941 82.6827 792.457 84.0388 791.359 84.0388Z" fill="white"/>
<path d="M765.753 96.8254L766.367 96.9868L765.656 99.5699L761.136 98.3107L761.911 95.7275L762.524 95.889L761.976 97.7617L763.202 98.1169L763.687 96.4056L764.3 96.5671L763.816 98.2784L765.237 98.6658L765.753 96.8254Z" fill="white"/>
<path d="M766.916 87.074C767.562 86.3314 768.24 86.3959 768.24 86.3959L768.369 87.0094C768.369 87.0094 767.852 87.0094 767.465 87.4615C767.304 87.6552 767.207 87.849 767.207 88.0427C767.207 88.2041 767.271 88.3333 767.4 88.4302C767.723 88.7208 768.272 88.3979 768.627 88.2687C768.886 88.1718 769.273 88.0104 769.661 88.0104C769.951 88.0104 770.242 88.075 770.5 88.3333C770.823 88.6239 770.952 88.9468 770.952 89.3342C770.952 89.7217 770.791 90.0769 770.5 90.4321C769.919 91.1102 769.112 91.1747 769.112 91.1747L768.95 90.5612C769.435 90.4644 769.79 90.2706 769.984 90.0123C770.145 89.8186 770.242 89.5926 770.242 89.4311C770.242 89.2697 770.177 89.0759 770.016 88.9468C769.887 88.8499 769.758 88.8176 769.596 88.8176C769.305 88.8176 768.95 88.9791 768.627 89.1082C768.046 89.3343 767.465 89.528 766.916 89.0436C766.658 88.7853 766.496 88.4947 766.496 88.1396C766.496 87.7844 766.625 87.3969 766.916 87.074Z" fill="white"/>
<path d="M803.758 111.065L805.534 111.872L805.437 112.066C805.211 112.615 805.114 112.712 804.372 112.712H803.048L802.725 113.422H804.275C804.598 113.422 804.824 113.422 805.017 113.357C805.082 113.325 805.147 113.293 805.211 113.228C805.211 113.261 805.179 113.293 805.179 113.357C805.179 113.519 805.211 113.713 805.276 113.842C805.502 114.326 806.051 114.584 806.47 114.584C807.213 114.584 807.504 114.132 807.859 113.325C807.859 113.293 808.279 112.324 808.279 112.324L804.049 110.419L803.758 111.065ZM806.503 113.842C806.277 113.842 805.921 113.713 805.792 113.357C805.76 113.261 805.76 113.164 805.76 113.099C805.76 112.841 805.889 112.583 806.018 112.292L806.083 112.098L807.439 112.712L807.278 113.067C807.019 113.68 806.858 113.842 806.503 113.842Z" fill="white"/>
<path d="M801.304 115.489C800.82 116.102 800.464 116.651 800.464 117.329C800.464 117.91 800.723 118.588 801.401 119.137C801.853 119.493 802.369 119.686 802.886 119.686C803.532 119.686 804.048 119.493 804.856 118.492L805.598 117.555L801.95 114.649L801.304 115.489ZM802.951 119.008C802.595 119.008 802.24 118.879 801.853 118.588C801.498 118.298 801.11 117.846 801.11 117.265C801.11 116.845 801.336 116.457 801.659 116.038L801.982 115.65L804.662 117.781L804.468 118.04C803.952 118.653 803.596 119.008 802.951 119.008Z" fill="white"/>
<path d="M811.927 103.703C811.927 88.9792 799.915 77 785.192 77C770.436 77 758.456 88.9792 758.456 103.703C758.456 112.55 762.815 120.752 770.113 125.756C770.823 128.436 773.277 130.406 776.183 130.406C776.958 130.406 777.733 130.245 778.443 129.986C779.412 130.309 780.445 130.568 781.446 130.794C781.155 131.601 780.736 132.376 780.348 133.054C780.348 133.054 780.348 133.054 780.381 133.054H780.348L780.897 133.603C781.026 133.538 781.188 133.474 781.382 133.474C781.93 133.474 782.382 133.926 782.382 134.474C782.382 135.023 781.93 135.475 781.382 135.475C780.897 135.475 780.477 135.153 780.251 134.83C780.251 134.83 780.122 135.282 780.122 135.863C780.122 137.768 782.221 139.964 785.127 140.9C788.033 139.996 790.132 137.8 790.132 135.863C790.132 135.217 790.003 134.83 790.003 134.83C789.777 135.088 789.421 135.475 788.873 135.475C788.324 135.475 787.872 135.023 787.872 134.474C787.872 133.926 788.324 133.474 788.873 133.474C789.066 133.474 789.228 133.538 789.389 133.635L789.938 133.086H789.97C789.68 132.343 789.454 131.698 789.292 131.052C794.103 130.406 798.172 128.372 801.368 124.982C808.085 119.848 811.927 112.098 811.927 103.703ZM776.183 129.663C773.148 129.663 770.662 127.177 770.662 124.142C770.662 123.173 770.92 122.302 771.34 121.494C771.63 121.753 771.921 122.011 772.244 122.302C771.985 122.883 771.824 123.496 771.824 124.174C771.824 125.821 772.663 127.209 774.246 128.146C775.15 128.695 776.183 129.179 777.281 129.599C776.926 129.631 776.57 129.663 776.183 129.663ZM785.192 121.623C784.062 121.623 782.931 121.527 781.801 121.301C780.736 119.202 778.54 117.846 776.183 117.846C775.602 117.846 775.053 117.942 774.504 118.072C769.951 114.714 767.239 109.321 767.239 103.671C767.239 93.7903 775.279 85.7503 785.159 85.7503C795.04 85.7503 803.08 93.7903 803.08 103.671C803.112 113.583 795.072 121.623 785.192 121.623ZM789.163 121.946C788.614 122.721 788.291 123.787 788.227 124.852C786.515 124.4 784.998 123.819 783.642 123.206C783.9 122.721 784.643 122.366 785.192 122.366C786.548 122.366 787.872 122.205 789.163 121.946ZM783.48 122.302C783.254 122.463 783.061 122.689 782.931 122.883C782.253 122.56 781.414 122.14 780.833 121.817C781.64 122.011 782.673 122.205 783.48 122.302ZM776.183 118.621C778.023 118.621 779.767 119.557 780.768 121.075C779.896 120.849 779.024 120.558 778.153 120.203H778.12C777.539 119.912 776.893 119.783 776.215 119.783C774.73 119.783 773.438 120.493 772.631 121.591C772.308 121.397 771.953 121.204 771.63 121.01C772.663 119.557 774.31 118.621 776.183 118.621ZM788.873 132.699C787.872 132.699 787.064 133.409 787.064 134.474C787.064 135.508 787.872 136.25 788.873 136.25C789.034 136.25 789.163 136.218 789.292 136.186C789.099 137.671 787.355 139.318 785.127 140.06C782.931 139.318 781.188 137.639 780.962 136.186C781.091 136.218 781.252 136.25 781.382 136.25C782.447 136.25 783.19 135.508 783.19 134.474C783.19 133.506 782.415 132.731 781.446 132.699C781.737 132.15 782.027 131.568 782.253 130.923C783.48 131.149 784.675 131.246 785.805 131.246C786.741 131.246 787.613 131.181 788.485 131.116C788.614 131.633 788.776 132.15 788.969 132.699C788.937 132.699 788.905 132.699 788.873 132.699ZM785.805 130.503C782.221 130.503 777.733 129.276 774.665 127.468C773.729 126.919 772.631 125.886 772.631 124.142C772.631 123.658 772.728 123.206 772.889 122.818C774.052 123.755 775.214 124.659 775.957 125.078C776.118 125.175 776.215 125.208 776.441 125.208C776.926 125.208 777.313 124.82 777.313 124.336C777.313 123.981 777.119 123.658 776.796 123.528C776.151 123.238 774.827 122.689 773.406 121.946C774.084 121.075 775.117 120.493 776.28 120.493C776.829 120.493 777.345 120.622 777.83 120.849L778.798 121.43C781.93 123.335 789.97 128.243 799.657 125.53C795.944 128.856 791.423 130.503 785.805 130.503ZM800.852 124.368C796.493 125.918 792.457 125.789 789.002 125.014C789.131 123.464 789.744 121.817 790.745 121.494C798.366 119.137 803.919 112.034 803.919 103.671C803.919 93.3705 795.524 85.0077 785.224 85.0077C774.891 85.0077 766.529 93.3705 766.529 103.671C766.529 109.386 769.209 114.843 773.697 118.362C772.631 118.847 771.727 119.589 771.049 120.526C770.694 120.3 770.371 120.041 770.08 119.815L769.919 119.977C770.113 120.235 770.436 120.558 770.823 120.913C770.274 121.849 769.951 122.947 769.951 124.11C769.951 124.303 769.951 124.465 769.983 124.659C763.267 119.783 759.296 112.001 759.296 103.703C759.296 89.399 770.952 77.7426 785.256 77.7426C799.56 77.7426 811.217 89.3667 811.217 103.703C811.12 111.904 807.374 119.428 800.852 124.368Z" fill="white"/>
<path d="M845.378 118.943C845.378 126.079 839.857 131.278 832.979 131.278C825.973 131.278 820.58 126.047 820.58 119.202C820.58 112.066 826.102 106.867 832.979 106.867C839.986 106.835 845.378 112.098 845.378 118.943ZM841.439 119.073C841.439 112.582 838.275 108.03 832.979 108.03C827.2 108.03 824.52 113.487 824.52 119.073C824.52 125.563 827.684 130.083 832.979 130.083C838.759 130.083 841.439 124.626 841.439 119.073Z" fill="white"/>
<path d="M921.096 118.943C921.096 126.079 915.575 131.278 908.697 131.278C901.69 131.278 896.298 126.047 896.298 119.202C896.298 112.066 901.82 106.867 908.697 106.867C915.736 106.835 921.096 112.098 921.096 118.943ZM917.157 119.073C917.157 112.582 913.993 108.03 908.697 108.03C902.917 108.03 900.237 113.487 900.237 119.073C900.237 125.563 903.402 130.083 908.697 130.083C914.477 130.083 917.157 124.626 917.157 119.073Z" fill="white"/>
<path d="M930.686 119.17H933.625C938.081 119.17 939.082 116.36 939.082 113.648C939.082 111.614 938.145 109.709 936.046 108.805C934.949 108.353 933.883 108.353 932.43 108.353H930.654V119.17H930.686ZM936.143 122.98C934.755 121.01 934.238 120.3 932.527 120.3H930.686V128.307C930.686 128.953 930.945 129.276 931.687 129.405L934.367 129.986V130.858H923.809V129.986L926.231 129.405C926.941 129.211 927.199 128.953 927.199 128.307V109.806C927.199 109.16 926.941 108.902 926.231 108.676L923.809 108.094V107.255H934.109C936.272 107.255 937.79 107.449 939.017 107.901C941.568 108.902 943.021 111.323 943.021 113.616C943.021 116.522 940.857 118.944 937.241 119.783V119.912C937.951 120.235 938.371 120.687 940.922 124.045L944.151 128.307C944.603 128.953 945.216 129.341 945.927 129.502L948.284 130.019V130.89H942.633C941.988 130.89 941.632 130.697 941.051 129.889L936.143 122.98Z" fill="white"/>
<path d="M889.873 115.327H890.841V123.206H889.873L889.291 120.849C889.098 120.009 888.581 119.654 887.774 119.654H882.059V128.307C882.059 128.953 882.317 129.276 883.06 129.405L885.74 129.986V130.858H875.181V129.986L877.603 129.405C878.313 129.211 878.604 128.953 878.604 128.307V109.806C878.604 109.16 878.345 108.902 877.603 108.708L875.181 108.127V107.255H893.037V113.164H892.036L890.938 109.612C890.68 108.708 890.292 108.353 889.485 108.353H882.059V118.524H887.774C888.549 118.524 889.033 118.201 889.291 117.329L889.873 115.327Z" fill="white"/>
<path d="M950.156 130.858V129.986L952.578 129.405C953.288 129.211 953.579 128.953 953.579 128.307V109.806C953.579 109.16 953.321 108.902 952.578 108.708L950.156 108.127V107.255H961.264C964.267 107.255 966.462 107.642 968.206 108.45C972.662 110.484 974.696 114.875 974.696 119.202C974.696 123.399 973.114 127.339 969.11 129.437C967.269 130.438 964.719 130.89 961.361 130.89H950.156V130.858ZM957.066 108.353V128.695C957.066 129.567 957.26 129.76 958.132 129.76H961.005C963.75 129.76 965.784 129.373 967.237 128.307C969.659 126.531 970.789 123.335 970.789 119.266C970.789 115.263 969.659 111.323 966.398 109.418C965.009 108.611 963.233 108.353 960.489 108.353H957.066Z" fill="white"/>
<path d="M854.645 130.018V130.89H846.315V130.018L848.413 129.502C849.188 129.308 849.737 129.05 850.254 128.436L857.487 119.395L850.254 109.806C849.802 109.16 849.221 108.837 848.478 108.611L846.508 108.094V107.222H856.873V108.094L854.645 108.546C853.87 108.675 854.064 108.998 854.452 109.547L859.779 117.167H859.908L865.365 109.547C865.753 109.031 865.882 108.837 865.171 108.643L863.073 108.127V107.255H871.403V108.127L869.304 108.643C868.53 108.837 867.981 109.095 867.464 109.676L860.651 118.265L868.207 128.307C868.659 128.953 869.272 129.276 869.983 129.502L871.952 130.018V130.89H861.587V130.018L863.815 129.566C864.59 129.437 864.461 129.179 864.074 128.63L858.294 120.493H858.165L852.32 128.565C851.933 129.082 851.804 129.276 852.514 129.47L854.645 130.018Z" fill="white"/>
<path d="M829.783 96.1151C829.137 96.7609 828.136 97.213 826.78 97.213C825.586 97.213 824.488 96.8255 823.745 96.0829C822.712 95.0496 822.776 93.758 822.776 92.3696V85.8149H824.1V92.8862C824.1 93.7903 824.068 94.6621 824.778 95.3402C825.263 95.8245 826.005 96.0829 826.845 96.0829C827.684 96.0829 828.33 95.7923 828.75 95.3725C829.525 94.5976 829.46 93.758 829.46 91.7561V85.8472H830.784V91.4332C830.784 93.4997 830.849 95.0496 829.783 96.1151Z" fill="white"/>
<path d="M841.665 96.9869L836.273 87.8169L836.305 96.9869H835.078V85.8149H836.467L841.859 95.0496L841.827 85.8149H843.054V96.9869H841.665Z" fill="white"/>
<path d="M849.092 85.8149H847.735V97.0192H849.092V85.8149Z" fill="white"/>
<path d="M857.454 96.9869H855.904L852.03 85.8149H853.45L856.711 95.6954L860.07 85.8149H861.361L857.454 96.9869Z" fill="white"/>
<path d="M864.429 96.9869V85.8149H870.499V86.9128H865.753V90.626H870.209V91.7238H865.753V95.8568H870.628V96.9869H864.429Z" fill="white"/>
<path d="M879.152 87.494C878.507 86.8483 877.667 86.8805 876.763 86.8805H875.536V91.0781H875.988C877.118 91.0781 878.345 91.1427 879.088 90.3678C879.443 90.0126 879.669 89.4637 879.669 88.9147C879.669 88.269 879.411 87.7523 879.152 87.494ZM880.379 96.987L879.088 94.081C878.281 92.3051 877.925 92.1114 876.311 92.1114H875.536V96.987H874.212V85.7827H876.634C878.119 85.7827 879.249 85.7827 880.121 86.6545C880.67 87.2034 880.993 87.9461 880.993 88.8825C880.993 89.6574 880.767 90.3032 880.282 90.8198C879.895 91.2396 879.217 91.627 878.474 91.6916C878.862 91.7239 879.185 91.9176 879.411 92.1437C879.701 92.4343 879.927 92.9186 880.25 93.629L881.768 96.987H880.379Z" fill="white"/>
<path d="M896.201 85.8149H894.845V97.0192H896.201V85.8149Z" fill="white"/>
<path d="M903.886 86.9128V96.9869H902.53V86.9128H899.204V85.8149H907.18V86.9128H903.886Z" fill="white"/>
<path d="M913.637 92.5633V96.9869H912.314V92.5633L908.762 85.8149H910.279L913.056 91.0458L915.736 85.8149H917.189L913.637 92.5633Z" fill="white"/>
<path d="M929.749 86.7512C927.554 86.7512 926.133 88.5917 926.133 91.4008C926.133 94.1777 927.715 96.0827 929.814 96.0827C932.139 96.0827 933.462 94.0808 933.462 91.304C933.462 88.5594 931.913 86.7512 929.749 86.7512ZM929.749 97.2129C926.843 97.2129 924.744 94.8235 924.744 91.4654C924.744 88.0105 926.843 85.6211 929.878 85.6211C932.817 85.6211 934.883 88.0105 934.883 91.3685C934.851 94.8235 932.752 97.2129 929.749 97.2129Z" fill="white"/>
<path d="M939.856 86.9128V90.626H944.183V91.6915H939.856V96.9869H938.532V85.8149H944.474V86.9128H939.856Z" fill="white"/>
<path d="M884.48 88.5272C884.48 86.8159 885.869 85.5889 887.871 85.5889C889.905 85.5889 890.906 86.6544 891.003 86.7513L890.357 87.5585C890.099 87.3648 889.195 86.719 887.968 86.719C886.547 86.719 885.74 87.4616 885.74 88.4626C885.74 88.9469 885.933 89.3021 886.256 89.5927C886.644 89.9479 887.193 90.2062 887.806 90.4645C888.549 90.8197 889.582 91.2072 890.26 91.9175C890.744 92.4019 891.1 93.0476 891.1 93.9194C891.1 95.7922 889.808 97.2129 887.483 97.2129C885.514 97.2129 884.254 96.1151 884.125 96.0182L884.739 95.1141C885.062 95.3402 886.289 96.0828 887.451 96.0828C889.13 96.0828 889.776 95.1464 889.776 94.0486C889.776 93.532 889.55 93.1122 889.195 92.7893C888.678 92.2727 887.871 91.9498 887.128 91.5946C886.385 91.2394 885.643 90.8843 885.126 90.3354C884.836 90.0125 884.48 89.4313 884.48 88.5272Z" fill="white"/>
<path d="M1056.41 119.768V128.099C1056.41 129.488 1056.9 131.448 1059.35 131.448C1061.63 131.448 1062.45 129.896 1062.45 127.936V119.687C1062.45 119.197 1062.21 118.952 1061.96 118.788H1064.16C1063.92 118.952 1063.67 119.197 1063.67 119.687L1063.59 127.854C1063.59 131.285 1061.72 132.592 1059.1 132.592C1056.9 132.592 1054.05 131.53 1054.05 128.018V119.768C1054.05 119.278 1053.72 119.033 1053.48 118.87H1057.15C1056.74 119.033 1056.41 119.278 1056.41 119.768ZM1088.39 119.768C1088.39 119.278 1088.23 119.033 1087.9 118.87H1090.02C1089.78 119.033 1089.54 119.278 1089.54 119.768V133C1089.54 133 1080.48 121.729 1080.48 121.565V131.612C1080.48 132.02 1080.72 132.347 1080.97 132.51H1078.85C1079.09 132.347 1079.34 132.02 1079.34 131.612V120.83C1079.34 120.013 1079.34 120.013 1079.01 119.605C1078.85 119.36 1078.52 119.115 1078.2 118.87H1081.46L1088.47 127.691L1088.39 119.768ZM1108.54 118.87C1108.22 119.033 1108.05 119.278 1108.05 119.768V131.53C1108.05 131.938 1108.22 132.265 1108.54 132.428H1105.12C1105.44 132.265 1105.61 131.938 1105.61 131.53V119.768C1105.61 119.278 1105.44 119.033 1105.12 118.87H1108.54ZM1131.63 119.85C1131.8 119.36 1131.71 119.033 1131.22 118.87H1133.51C1133.02 119.197 1133.02 119.36 1132.77 119.85C1132.45 120.667 1127.88 132.918 1127.88 132.918C1127.88 132.918 1122.9 120.585 1122.58 119.85C1122.33 119.442 1122.09 119.115 1121.52 118.87H1125.68C1125.19 119.033 1125.11 119.523 1125.27 119.932C1125.27 120.095 1128.45 128.344 1128.45 128.344C1128.45 128.344 1131.55 120.013 1131.63 119.85ZM1154.56 120.585C1154.23 120.095 1153.82 119.932 1153.09 119.85H1149.91V124.424H1152.76C1153.01 124.424 1153.33 124.097 1153.42 123.852V125.976C1153.33 125.731 1153.01 125.404 1152.76 125.404H1149.91V131.285C1150.32 131.366 1151.46 131.448 1152.35 131.366C1153.99 131.366 1154.72 131.366 1155.45 130.141L1155.05 132.428H1146.89C1147.21 132.265 1147.46 132.02 1147.46 131.53V119.768C1147.46 119.278 1147.21 119.033 1146.89 118.87H1154.48L1154.56 120.585ZM1175.36 125.567C1176.67 125.731 1177.24 126.629 1177.48 127.038C1177.48 127.038 1179.77 130.795 1180.42 131.612C1180.75 132.102 1181.64 132.428 1181.64 132.428H1179.2C1178.46 132.428 1177.89 131.938 1177.48 131.448C1176.67 130.223 1175.77 128.753 1175.12 127.609C1174.63 126.793 1174.22 125.976 1173.4 125.976H1172.59V131.448C1172.59 131.857 1172.83 132.183 1173.08 132.347H1169.65C1169.98 132.183 1170.14 131.857 1170.14 131.448V119.768C1170.14 119.278 1169.98 119.033 1169.65 118.87H1173.73C1177.65 118.87 1178.54 120.912 1178.54 122.219C1178.54 124.342 1176.67 125.404 1175.36 125.567ZM1172.51 119.85V125.077H1173.32C1174.63 125.077 1175.93 124.342 1175.93 122.3C1175.93 121.402 1175.44 119.768 1173.57 119.768C1173.08 119.768 1172.51 119.85 1172.51 119.85ZM1202.37 128.426C1202.37 130.958 1200.24 132.592 1197.96 132.592C1196.25 132.592 1195.02 131.938 1194.29 131.612L1194.21 128.263C1194.53 129.651 1195.68 131.53 1197.63 131.53C1199.51 131.53 1200.08 130.141 1200.08 129.161C1200.08 127.283 1198.45 126.956 1196.74 125.976C1195.02 124.996 1194.21 123.852 1194.21 122.382C1194.21 119.687 1196.57 118.625 1198.37 118.625C1199.02 118.625 1200.24 118.788 1201.22 119.36L1201.3 122.3C1201.06 121.239 1200 119.605 1198.12 119.605C1196.65 119.605 1196.08 120.667 1196.08 121.484C1196.08 122.709 1196.9 123.199 1198.69 124.016C1200.57 124.996 1202.37 125.649 1202.37 128.426ZM1220.56 118.87C1220.23 119.033 1220.07 119.278 1220.07 119.768V131.53C1220.07 131.938 1220.23 132.265 1220.56 132.428H1217.13C1217.46 132.265 1217.62 131.938 1217.62 131.53V119.768C1217.62 119.278 1217.46 119.033 1217.13 118.87H1220.56ZM1241.12 119.85V131.53C1241.12 131.938 1241.36 132.265 1241.61 132.428H1238.26C1238.59 132.265 1238.75 131.938 1238.75 131.53V119.85C1237.36 119.85 1235.73 120.013 1235.73 120.013C1235.24 120.013 1234.92 120.504 1234.75 120.83V118.87H1245.12V120.83C1244.95 120.504 1244.71 120.095 1244.22 120.013C1244.22 120.013 1242.5 119.85 1241.12 119.85ZM1269.1 118.87C1268.53 119.033 1268.04 119.605 1267.88 120.095L1264.86 126.139V131.53C1264.86 131.938 1265.18 132.265 1265.51 132.428H1261.76C1262 132.265 1262.41 132.02 1262.41 131.53V126.221L1258.74 119.768C1258.49 119.278 1258.25 119.115 1257.76 118.788H1262C1261.51 118.952 1261.19 119.115 1261.68 120.013L1264.37 124.914L1266.9 119.768C1267.14 119.36 1267.06 118.87 1266.49 118.788L1269.1 118.87Z" fill="white"/>
<path d="M1068.02 87.5709H1072.43C1072.02 87.8156 1071.77 88.2234 1071.77 88.7943V105.106C1071.77 105.677 1072.02 106.085 1072.43 106.33H1067.69C1068.1 106.085 1068.35 105.677 1068.35 105.106V91.2411C1068.35 90.9149 1068.43 90.5887 1068.43 90.5887L1068.18 91.2411L1061.99 106.819L1055.62 91.6489L1055.38 90.9149V105.106C1055.38 105.677 1055.71 106.085 1056.11 106.33H1053.26C1053.67 106.085 1053.91 105.677 1053.91 105.106V88.7943C1053.91 88.305 1053.5 87.734 1053.1 87.5709H1057.74L1062.96 100.294L1068.02 87.5709ZM1081.48 87.5709C1081.07 87.8156 1080.83 88.1418 1080.83 88.7943V105.106C1080.83 105.677 1081.07 106.085 1081.48 106.33H1076.75C1077.16 106.085 1077.4 105.677 1077.4 105.106V88.7943C1077.4 88.1418 1077.16 87.734 1076.75 87.5709H1081.48ZM1101.62 93.0355C1099.99 89.2021 1096.98 88.7943 1095.67 88.7943C1091.18 88.7943 1088.66 92.2199 1088.66 96.7057C1088.66 100.539 1090.45 105.188 1095.91 105.188C1097.14 105.188 1100.16 104.78 1101.87 100.947C1101.95 100.865 1101.62 104.943 1101.62 104.943C1099.42 106.248 1097.14 106.738 1094.94 106.738C1089.8 106.738 1085.15 102.986 1085.15 97.1135C1085.15 92.3014 1088.57 87.3262 1095.26 87.3262C1097.38 87.3262 1099.42 87.734 1101.46 88.7943C1101.38 88.7128 1101.71 93.117 1101.62 93.0355ZM1117.04 87.5709H1121.77C1121.36 87.8156 1121.04 88.1418 1121.04 88.7943V105.106C1121.04 105.677 1121.36 106.085 1121.77 106.33H1117.04C1117.45 106.085 1117.69 105.677 1117.69 105.106V96.7057H1109.54V105.188C1109.54 105.759 1109.78 106.167 1110.19 106.411H1105.46C1105.87 106.167 1106.11 105.759 1106.11 105.188V88.8759C1106.11 88.2234 1105.87 87.8156 1105.46 87.6525H1110.19C1109.78 87.8972 1109.54 88.2234 1109.54 88.8759V95.4007H1117.69V88.8759C1117.69 88.2234 1117.45 87.8156 1117.04 87.5709ZM1130.82 87.5709C1130.41 87.8156 1130.17 88.1418 1130.17 88.7943V105.106C1130.17 105.677 1130.41 106.085 1130.82 106.33H1126.09C1126.5 106.085 1126.74 105.677 1126.74 105.106V88.7943C1126.74 88.1418 1126.5 87.734 1126.09 87.5709H1130.82ZM1150.8 88.7128L1150.97 93.117C1149.66 89.3652 1146.32 88.7943 1145.01 88.7943C1140.53 88.7943 1138 92.2199 1138 96.7057C1138 100.539 1139.79 105.188 1145.26 105.188C1145.83 105.188 1147.38 105.106 1148.6 104.291V99.4787C1148.6 98.8262 1148.36 98.4184 1147.95 98.1738H1152.68C1152.27 98.4184 1152.03 98.8262 1152.03 99.4787V103.557C1152.03 104.128 1152.35 104.617 1152.44 104.699C1150.23 106.004 1146.48 106.738 1144.36 106.738C1139.14 106.738 1134.49 102.986 1134.49 97.1135C1134.49 92.3014 1137.92 87.3262 1144.69 87.3262C1146.81 87.2447 1148.68 87.8156 1150.8 88.7128ZM1169.97 105.025C1170.22 105.596 1170.38 105.922 1171.28 106.411H1165.65C1166.3 106.004 1166.46 105.596 1166.3 105.025C1166.22 104.78 1165.57 103.067 1164.83 101.191H1158.39C1157.57 103.067 1157 104.699 1156.92 105.025C1156.68 105.677 1156.84 106.085 1157.49 106.411H1153.9C1154.64 105.922 1154.88 105.596 1155.13 105.025C1155.62 103.965 1162.55 87 1162.55 87C1162.55 87 1169.48 104.046 1169.97 105.025ZM1164.18 99.805C1162.96 96.7057 1161.49 93.0355 1161.49 93.0355C1161.49 93.0355 1159.69 97.766 1158.88 99.805H1164.18ZM1186.2 88.7943C1186.2 88.1418 1185.96 87.734 1185.55 87.5709H1188.49C1188.08 87.8156 1187.83 88.1418 1187.83 88.7943V107.145C1187.83 107.145 1175.19 91.4858 1175.19 91.2411V105.106C1175.19 105.677 1175.52 106.085 1175.93 106.33H1172.91C1173.32 106.085 1173.56 105.677 1173.56 105.106V90.344C1173.56 89.2837 1173.56 89.2021 1173.07 88.6312C1172.83 88.305 1172.42 87.8972 1171.85 87.5709H1176.33L1186.04 99.7234V88.7943H1186.2ZM1209.94 100.865C1209.94 104.291 1207.08 106.656 1203.82 106.656C1201.45 106.656 1199.66 105.759 1198.76 105.351L1198.6 100.702C1199.09 102.66 1200.64 105.27 1203.41 105.27C1206.02 105.27 1206.84 103.312 1206.84 101.926C1206.84 99.234 1204.55 98.9078 1202.19 97.5213C1199.74 96.1348 1198.68 94.5851 1198.68 92.5461C1198.68 88.7943 1202.02 87.2447 1204.39 87.2447C1205.29 87.2447 1207 87.4078 1208.39 88.305L1208.55 92.383C1208.22 90.9149 1206.67 88.7128 1204.15 88.7128C1202.19 88.7128 1201.37 90.1809 1201.37 91.4043C1201.37 93.117 1202.51 93.7695 1204.96 94.9113C1207.41 96.1348 1209.94 97.0319 1209.94 100.865ZM1220.46 88.9574V105.188C1220.46 105.759 1220.78 106.167 1221.11 106.411H1216.38C1216.79 106.167 1217.03 105.759 1217.03 105.188V88.9574C1215.07 88.9574 1212.79 89.1206 1212.79 89.1206C1212.14 89.1206 1211.73 89.773 1211.49 90.2624V87.5709H1225.92V90.2624C1225.68 89.773 1225.35 89.2021 1224.7 89.1206C1224.78 89.2021 1222.33 88.9574 1220.46 88.9574ZM1239.71 105.025C1239.95 105.596 1240.11 105.922 1241.01 106.411H1235.38C1236.04 106.004 1236.2 105.596 1236.04 105.025C1235.95 104.78 1235.3 103.067 1234.57 101.191H1228.12C1227.31 103.067 1226.74 104.699 1226.66 105.025C1226.41 105.677 1226.57 106.085 1227.23 106.411H1223.64C1224.37 105.922 1224.62 105.596 1224.86 105.025C1225.35 103.965 1232.28 87 1232.28 87C1232.28 87 1239.22 104.046 1239.71 105.025ZM1233.91 99.805C1232.69 96.7057 1231.22 93.0355 1231.22 93.0355C1231.22 93.0355 1229.43 97.766 1228.61 99.805H1233.91ZM1247.86 88.9574V105.188C1247.86 105.759 1248.19 106.167 1248.51 106.411H1243.87C1244.27 106.167 1244.52 105.759 1244.52 105.188V88.9574C1242.56 88.9574 1240.28 89.1206 1240.28 89.1206C1239.62 89.1206 1239.22 89.773 1238.97 90.2624V87.5709H1253.41V90.2624C1253.16 89.773 1252.84 89.2021 1252.18 89.1206C1252.18 89.2021 1249.74 88.9574 1247.86 88.9574ZM1266.87 90.0177C1266.38 89.2837 1265.8 89.039 1264.83 89.039C1264.01 88.9574 1260.34 88.9574 1260.34 88.9574V95.3191H1264.34C1264.66 95.3191 1265.15 94.9113 1265.32 94.5035V97.4397C1265.15 97.0319 1264.74 96.6241 1264.34 96.6241H1260.34V104.78C1260.83 104.862 1262.46 104.943 1263.77 104.943C1266.05 104.862 1267.11 104.943 1268.09 103.23L1267.52 106.411H1256.18C1256.59 106.167 1257 105.84 1257 105.188V88.8759C1257 88.2234 1256.59 87.8156 1256.18 87.6525H1266.78L1266.87 90.0177Z" fill="white"/>
<path d="M1052.9 111.15H1268.53V112.875H1052.9V111.15Z" fill="white"/>
</svg>
