<svg width="20" height="23" viewBox="0 0 20 23" fill="none" xmlns="http://www.w3.org/2000/svg">
<path d="M9.94535 0C8.08581 0.0126638 6.28844 0.671065 4.86072 1.86257C3.43301 3.05408 2.46366 4.70465 2.11851 6.53193C1.77336 8.3592 2.07385 10.2496 2.96858 11.8798C3.86331 13.51 5.29667 14.7787 7.02348 15.4688C6.90742 14.7093 6.90742 13.9366 7.02348 13.1771L7.96879 9.16667C7.81919 8.80346 7.74511 8.4136 7.75108 8.02083C7.75108 6.90938 8.39848 6.07292 9.20056 6.07292C9.34586 6.07073 9.48992 6.09998 9.62287 6.15866C9.75582 6.21733 9.87451 6.30405 9.97082 6.41288C10.0671 6.5217 10.1388 6.65006 10.1809 6.78915C10.2229 6.92824 10.2345 7.07479 10.2146 7.21875C10.2146 7.66197 10.0337 8.24805 9.84366 8.86341C9.73894 9.20256 9.63147 9.55062 9.55004 9.88854C9.50072 10.0659 9.49485 10.2525 9.53294 10.4326C9.57103 10.6127 9.65196 10.781 9.76887 10.9232C9.88578 11.0654 10.0352 11.1774 10.2046 11.2496C10.3739 11.3218 10.5582 11.3521 10.7417 11.338C12.1625 11.338 13.2625 9.83125 13.2625 7.66563C13.2768 7.22556 13.1992 6.78735 13.0347 6.37894C12.8702 5.97054 12.6223 5.60091 12.307 5.29364C11.9916 4.98637 11.6157 4.74821 11.2031 4.59435C10.7906 4.44048 10.3505 4.37429 9.91098 4.4C9.4417 4.37984 8.97321 4.45512 8.53387 4.62127C8.09453 4.78742 7.69347 5.041 7.35497 5.36664C7.01647 5.69229 6.74756 6.08324 6.56454 6.51582C6.38151 6.9484 6.28816 7.41363 6.29014 7.88333C6.28377 8.53768 6.48429 9.17732 6.86306 9.71094C6.8906 9.74155 6.91022 9.77845 6.92021 9.81839C6.9302 9.85834 6.93025 9.90013 6.92035 9.9401C6.8573 10.1923 6.71982 10.7422 6.69691 10.851C6.674 10.9599 6.5766 11.0286 6.42764 10.9599C5.42504 10.4901 4.80056 9.02917 4.80056 7.84896C4.80056 5.3224 6.63962 2.99635 10.1 2.99635C12.8787 2.99635 15.0443 4.97865 15.0443 7.63125C15.0443 10.3927 13.3256 12.6156 10.8792 12.6156C10.5206 12.6281 10.1645 12.5508 9.84333 12.3907C9.52216 12.2306 9.24608 11.9928 9.04014 11.699L8.54171 13.6068C8.30277 14.3482 7.96762 15.0551 7.54483 15.7094C8.32387 15.9396 9.13306 16.0516 9.94535 16.0417C12.0726 16.0417 14.1127 15.1966 15.6169 13.6924C17.1211 12.1882 17.9662 10.1481 17.9662 8.02083C17.9662 5.89358 17.1211 3.85345 15.6169 2.34925C14.1127 0.84505 12.0726 0 9.94535 0Z" fill="white"/>
</svg>
