<svg width="20" height="21" viewBox="0 0 20 21" fill="none" xmlns="http://www.w3.org/2000/svg">
<path d="M18.1748 1.85603C18.2231 1.78872 18.1518 1.70182 18.0745 1.73176C17.5256 1.94453 16.9519 2.08809 16.3667 2.15883C17.0183 1.76956 17.5211 1.177 17.7999 0.475445C17.8283 0.403978 17.7503 0.340156 17.683 0.377334C17.0774 0.711783 16.4242 0.952612 15.7458 1.09131C15.7174 1.09712 15.6881 1.08745 15.6682 1.06641C15.159 0.52918 14.4888 0.171484 13.7582 0.0478764C13.0122 -0.0783277 12.2455 0.0466323 11.5782 0.403158C10.9109 0.759684 10.3808 1.32761 10.0711 2.01786C9.77655 2.67416 9.69708 3.40576 9.84234 4.10836C9.85361 4.16288 9.81094 4.21435 9.75538 4.2109C8.43533 4.12891 7.14558 3.7778 5.96557 3.17872C4.78856 2.58116 3.74628 1.74986 2.90222 0.73608C2.86476 0.691088 2.79377 0.696911 2.76647 0.748704C2.50383 1.24709 2.36632 1.80259 2.36669 2.36717C2.36562 2.92915 2.50354 3.48268 2.76815 3.97847C3.03277 4.47426 3.41587 4.89693 3.88336 5.20883C3.38759 5.19534 2.90148 5.07278 2.4594 4.85056C2.40242 4.82192 2.33408 4.8627 2.33705 4.9264C2.37152 5.66743 2.64357 6.41137 3.11445 6.98214C3.61555 7.58953 4.31107 8.0052 5.08336 8.15883C4.78607 8.24931 4.47742 8.29701 4.16669 8.3005C3.99757 8.29852 3.82879 8.28605 3.6613 8.26315C3.5992 8.25466 3.5485 8.31365 3.57024 8.37243C3.80058 8.99534 4.20752 9.53888 4.74259 9.93563C5.31463 10.3598 6.00467 10.5951 6.71669 10.6088C5.51436 11.5549 4.02993 12.0712 2.50002 12.0755C2.34282 12.076 2.18569 12.0709 2.02892 12.0602C1.94058 12.0542 1.89996 12.1719 1.9761 12.2171C3.46674 13.1017 5.17051 13.5693 6.90836 13.5672C8.19143 13.5805 9.4643 13.338 10.6526 12.8539C11.8409 12.3698 12.9209 11.6537 13.8294 10.7476C14.7378 9.84142 15.4567 8.76333 15.9438 7.57626C16.431 6.38918 16.6767 5.11694 16.6667 3.83383V3.43398C16.6667 3.40767 16.6791 3.38292 16.7001 3.36707C17.2654 2.94029 17.7624 2.43075 18.1748 1.85603Z" fill="white"/>
</svg>
